<?xml version="1.0" encoding="UTF-8" standalone="no"?>
<!DOCTYPE svg PUBLIC "-//W3C//DTD SVG 1.1//EN"
 "http://www.w3.org/Graphics/SVG/1.1/DTD/svg11.dtd">
<!-- Generated by graphviz version 2.40.1 (20161225.0304)
 -->
<!-- Title: dependencies Pages: 1 -->
<svg width="998pt" height="211pt"
 viewBox="0.00 0.00 998.00 211.00" xmlns="http://www.w3.org/2000/svg" xmlns:xlink="http://www.w3.org/1999/xlink">
<g id="graph0" class="graph" transform="scale(1 1) rotate(0) translate(4 207)">
<title>dependencies</title>
<polygon fill="#ffffff" stroke="transparent" points="-4,4 -4,-207 994,-207 994,4 -4,4"/>
<text text-anchor="start" x="474.0091" y="-42.4" font-family="sans-serif" font-weight="bold" font-size="14.00" fill="#000000">Legend</text>
<polygon fill="#ffffb3" stroke="transparent" points="261,-10 261,-30 281,-30 281,-10 261,-10"/>
<text text-anchor="start" x="284.629" y="-15.4" font-family="sans-serif" font-size="14.00" fill="#000000"> &#160;Declarations</text>
<polygon fill="#8dd3c7" stroke="transparent" points="374,-10 374,-30 394,-30 394,-10 374,-10"/>
<text text-anchor="start" x="397.7251" y="-15.4" font-family="sans-serif" font-size="14.00" fill="#000000"> &#160;Module</text>
<polygon fill="#80b1d3" stroke="transparent" points="460,-10 460,-30 480,-30 480,-10 460,-10"/>
<text text-anchor="start" x="483.7812" y="-15.4" font-family="sans-serif" font-size="14.00" fill="#000000"> &#160;Bootstrap</text>
<polygon fill="#fdb462" stroke="transparent" points="557,-10 557,-30 577,-30 577,-10 557,-10"/>
<text text-anchor="start" x="580.6732" y="-15.4" font-family="sans-serif" font-size="14.00" fill="#000000"> &#160;Providers</text>
<polygon fill="#fb8072" stroke="transparent" points="653,-10 653,-30 673,-30 673,-10 653,-10"/>
<text text-anchor="start" x="676.7258" y="-15.4" font-family="sans-serif" font-size="14.00" fill="#000000"> &#160;Exports</text>
<g id="clust1" class="cluster">
<title>cluster_HomePageModule</title>
<polygon fill="none" stroke="#000000" stroke-dasharray="1,5" points="8,-70 8,-195 982,-195 982,-70 8,-70"/>
</g>
<g id="clust2" class="cluster">
<title>cluster_HomePageModule_declarations</title>
<polygon fill="none" stroke="#000000" points="16,-78 16,-130 974,-130 974,-78 16,-78"/>
</g>
<!-- CameraComponent -->
<g id="node1" class="node">
<title>CameraComponent</title>
<polygon fill="#ffffb3" stroke="#000000" points="966.3641,-122 841.6359,-122 841.6359,-86 966.3641,-86 966.3641,-122"/>
<text text-anchor="middle" x="904" y="-99.8" font-family="Times,serif" font-size="14.00" fill="#000000">CameraComponent</text>
</g>
<!-- HomePageModule -->
<g id="node8" class="node">
<title>HomePageModule</title>
<polygon fill="#8dd3c7" stroke="#000000" points="567.4734,-187 564.4734,-191 543.4734,-191 540.4734,-187 446.5266,-187 446.5266,-151 567.4734,-151 567.4734,-187"/>
<text text-anchor="middle" x="507" y="-164.8" font-family="Times,serif" font-size="14.00" fill="#000000">HomePageModule</text>
</g>
<!-- CameraComponent&#45;&gt;HomePageModule -->
<g id="edge1" class="edge">
<title>CameraComponent&#45;&gt;HomePageModule</title>
<path fill="none" stroke="#000000" d="M904,-122.2921C904,-144.2057 904,-178 904,-178 904,-178 577.7279,-178 577.7279,-178"/>
<polygon fill="#000000" stroke="#000000" points="577.7279,-174.5001 567.7279,-178 577.7279,-181.5001 577.7279,-174.5001"/>
</g>
<!-- HomePage -->
<g id="node2" class="node">
<title>HomePage</title>
<polygon fill="#ffffb3" stroke="#000000" points="823.9248,-122 746.0752,-122 746.0752,-86 823.9248,-86 823.9248,-122"/>
<text text-anchor="middle" x="785" y="-99.8" font-family="Times,serif" font-size="14.00" fill="#000000">HomePage</text>
</g>
<!-- HomePage&#45;&gt;HomePageModule -->
<g id="edge2" class="edge">
<title>HomePage&#45;&gt;HomePageModule</title>
<path fill="none" stroke="#000000" d="M785,-122.1061C785,-141.3391 785,-169 785,-169 785,-169 577.6648,-169 577.6648,-169"/>
<polygon fill="#000000" stroke="#000000" points="577.6648,-165.5001 567.6648,-169 577.6647,-172.5001 577.6648,-165.5001"/>
</g>
<!-- InstructionComponent -->
<g id="node3" class="node">
<title>InstructionComponent</title>
<polygon fill="#ffffb3" stroke="#000000" points="727.9846,-122 586.0154,-122 586.0154,-86 727.9846,-86 727.9846,-122"/>
<text text-anchor="middle" x="657" y="-99.8" font-family="Times,serif" font-size="14.00" fill="#000000">InstructionComponent</text>
</g>
<!-- InstructionComponent&#45;&gt;HomePageModule -->
<g id="edge3" class="edge">
<title>InstructionComponent&#45;&gt;HomePageModule</title>
<path fill="none" stroke="#000000" d="M657,-122.027C657,-138.3976 657,-160 657,-160 657,-160 577.5784,-160 577.5784,-160"/>
<polygon fill="#000000" stroke="#000000" points="577.5784,-156.5001 567.5784,-160 577.5783,-163.5001 577.5784,-156.5001"/>
</g>
<!-- NavbarComponent -->
<g id="node4" class="node">
<title>NavbarComponent</title>
<polygon fill="#ffffb3" stroke="#000000" points="568.0297,-122 445.9703,-122 445.9703,-86 568.0297,-86 568.0297,-122"/>
<text text-anchor="middle" x="507" y="-99.8" font-family="Times,serif" font-size="14.00" fill="#000000">NavbarComponent</text>
</g>
<!-- NavbarComponent&#45;&gt;HomePageModule -->
<g id="edge4" class="edge">
<title>NavbarComponent&#45;&gt;HomePageModule</title>
<path fill="none" stroke="#000000" d="M507,-122.1061C507,-122.1061 507,-140.991 507,-140.991"/>
<polygon fill="#000000" stroke="#000000" points="503.5001,-140.9909 507,-150.991 510.5001,-140.991 503.5001,-140.9909"/>
</g>
<!-- QueueComponent -->
<g id="node5" class="node">
<title>QueueComponent</title>
<polygon fill="#ffffb3" stroke="#000000" points="427.8683,-122 310.1317,-122 310.1317,-86 427.8683,-86 427.8683,-122"/>
<text text-anchor="middle" x="369" y="-99.8" font-family="Times,serif" font-size="14.00" fill="#000000">QueueComponent</text>
</g>
<!-- QueueComponent&#45;&gt;HomePageModule -->
<g id="edge5" class="edge">
<title>QueueComponent&#45;&gt;HomePageModule</title>
<path fill="none" stroke="#000000" d="M369,-122.027C369,-138.3976 369,-160 369,-160 369,-160 436.4712,-160 436.4712,-160"/>
<polygon fill="#000000" stroke="#000000" points="436.4712,-163.5001 446.4712,-160 436.4712,-156.5001 436.4712,-163.5001"/>
</g>
<!-- SettingsComponent -->
<g id="node6" class="node">
<title>SettingsComponent</title>
<polygon fill="#ffffb3" stroke="#000000" points="292.4468,-122 165.5532,-122 165.5532,-86 292.4468,-86 292.4468,-122"/>
<text text-anchor="middle" x="229" y="-99.8" font-family="Times,serif" font-size="14.00" fill="#000000">SettingsComponent</text>
</g>
<!-- SettingsComponent&#45;&gt;HomePageModule -->
<g id="edge6" class="edge">
<title>SettingsComponent&#45;&gt;HomePageModule</title>
<path fill="none" stroke="#000000" d="M229,-122.1061C229,-141.3391 229,-169 229,-169 229,-169 436.3352,-169 436.3352,-169"/>
<polygon fill="#000000" stroke="#000000" points="436.3353,-172.5001 446.3352,-169 436.3352,-165.5001 436.3353,-172.5001"/>
</g>
<!-- StudentComponent -->
<g id="node7" class="node">
<title>StudentComponent</title>
<polygon fill="#ffffb3" stroke="#000000" points="148.1108,-122 23.8892,-122 23.8892,-86 148.1108,-86 148.1108,-122"/>
<text text-anchor="middle" x="86" y="-99.8" font-family="Times,serif" font-size="14.00" fill="#000000">StudentComponent</text>
</g>
<!-- StudentComponent&#45;&gt;HomePageModule -->
<g id="edge7" class="edge">
<title>StudentComponent&#45;&gt;HomePageModule</title>
<path fill="none" stroke="#000000" d="M86,-122.2921C86,-144.2057 86,-178 86,-178 86,-178 436.2326,-178 436.2326,-178"/>
<polygon fill="#000000" stroke="#000000" points="436.2326,-181.5001 446.2326,-178 436.2326,-174.5001 436.2326,-181.5001"/>
</g>
</g>
</svg>
