<svg xmlns="http://www.w3.org/2000/svg" xmlns:xlink="http://www.w3.org/1999/xlink" width="998pt" height="211pt" viewBox="0 0 998 211"><g id="graph0" class="graph" transform="scale(1 1) rotate(0) translate(4 207)"><title>dependencies</title><polygon fill="#fff" stroke="transparent" points="-4 4 -4 -207 994 -207 994 4 -4 4"/><text x="474.009" y="-42.4" fill="#000" font-family="sans-serif" font-size="14" font-weight="bold" text-anchor="start">Legend</text><polygon fill="#ffffb3" stroke="transparent" points="261 -10 261 -30 281 -30 281 -10 261 -10"/><text x="284.629" y="-15.4" fill="#000" font-family="sans-serif" font-size="14" text-anchor="start">Declarations</text><polygon fill="#8dd3c7" stroke="transparent" points="374 -10 374 -30 394 -30 394 -10 374 -10"/><text x="397.725" y="-15.4" fill="#000" font-family="sans-serif" font-size="14" text-anchor="start">Module</text><polygon fill="#80b1d3" stroke="transparent" points="460 -10 460 -30 480 -30 480 -10 460 -10"/><text x="483.781" y="-15.4" fill="#000" font-family="sans-serif" font-size="14" text-anchor="start">Bootstrap</text><polygon fill="#fdb462" stroke="transparent" points="557 -10 557 -30 577 -30 577 -10 557 -10"/><text x="580.673" y="-15.4" fill="#000" font-family="sans-serif" font-size="14" text-anchor="start">Providers</text><polygon fill="#fb8072" stroke="transparent" points="653 -10 653 -30 673 -30 673 -10 653 -10"/><text x="676.726" y="-15.4" fill="#000" font-family="sans-serif" font-size="14" text-anchor="start">Exports</text><g id="clust1" class="cluster"><title>cluster_HomePageModule</title><polygon fill="none" stroke="#000" stroke-dasharray="1 5" points="8 -70 8 -195 982 -195 982 -70 8 -70"/></g><g id="clust2" class="cluster"><title>cluster_HomePageModule_declarations</title><polygon fill="none" stroke="#000" points="16 -78 16 -130 974 -130 974 -78 16 -78"/></g><g id="node1" class="node"><title>CameraComponent</title><polygon fill="#ffffb3" stroke="#000" points="966.364 -122 841.636 -122 841.636 -86 966.364 -86 966.364 -122"/><text x="904" y="-99.8" fill="#000" font-family="Times,serif" font-size="14" text-anchor="middle">CameraComponent</text></g><g id="node8" class="node"><title>HomePageModule</title><polygon fill="#8dd3c7" stroke="#000" points="567.473 -187 564.473 -191 543.473 -191 540.473 -187 446.527 -187 446.527 -151 567.473 -151 567.473 -187"/><text x="507" y="-164.8" fill="#000" font-family="Times,serif" font-size="14" text-anchor="middle">HomePageModule</text></g><g id="edge1" class="edge"><title>CameraComponent-&gt;HomePageModule</title><path fill="none" stroke="#000" d="M904,-122.2921C904,-144.2057 904,-178 904,-178 904,-178 577.7279,-178 577.7279,-178"/><polygon fill="#000" stroke="#000" points="577.728 -174.5 567.728 -178 577.728 -181.5 577.728 -174.5"/></g><g id="node2" class="node"><title>HomePage</title><polygon fill="#ffffb3" stroke="#000" points="823.925 -122 746.075 -122 746.075 -86 823.925 -86 823.925 -122"/><text x="785" y="-99.8" fill="#000" font-family="Times,serif" font-size="14" text-anchor="middle">HomePage</text></g><g id="edge2" class="edge"><title>HomePage-&gt;HomePageModule</title><path fill="none" stroke="#000" d="M785,-122.1061C785,-141.3391 785,-169 785,-169 785,-169 577.6648,-169 577.6648,-169"/><polygon fill="#000" stroke="#000" points="577.665 -165.5 567.665 -169 577.665 -172.5 577.665 -165.5"/></g><g id="node3" class="node"><title>InstructionComponent</title><polygon fill="#ffffb3" stroke="#000" points="727.985 -122 586.015 -122 586.015 -86 727.985 -86 727.985 -122"/><text x="657" y="-99.8" fill="#000" font-family="Times,serif" font-size="14" text-anchor="middle">InstructionComponent</text></g><g id="edge3" class="edge"><title>InstructionComponent-&gt;HomePageModule</title><path fill="none" stroke="#000" d="M657,-122.027C657,-138.3976 657,-160 657,-160 657,-160 577.5784,-160 577.5784,-160"/><polygon fill="#000" stroke="#000" points="577.578 -156.5 567.578 -160 577.578 -163.5 577.578 -156.5"/></g><g id="node4" class="node"><title>NavbarComponent</title><polygon fill="#ffffb3" stroke="#000" points="568.03 -122 445.97 -122 445.97 -86 568.03 -86 568.03 -122"/><text x="507" y="-99.8" fill="#000" font-family="Times,serif" font-size="14" text-anchor="middle">NavbarComponent</text></g><g id="edge4" class="edge"><title>NavbarComponent-&gt;HomePageModule</title><path fill="none" stroke="#000" d="M507,-122.1061C507,-122.1061 507,-140.991 507,-140.991"/><polygon fill="#000" stroke="#000" points="503.5 -140.991 507 -150.991 510.5 -140.991 503.5 -140.991"/></g><g id="node5" class="node"><title>QueueComponent</title><polygon fill="#ffffb3" stroke="#000" points="427.868 -122 310.132 -122 310.132 -86 427.868 -86 427.868 -122"/><text x="369" y="-99.8" fill="#000" font-family="Times,serif" font-size="14" text-anchor="middle">QueueComponent</text></g><g id="edge5" class="edge"><title>QueueComponent-&gt;HomePageModule</title><path fill="none" stroke="#000" d="M369,-122.027C369,-138.3976 369,-160 369,-160 369,-160 436.4712,-160 436.4712,-160"/><polygon fill="#000" stroke="#000" points="436.471 -163.5 446.471 -160 436.471 -156.5 436.471 -163.5"/></g><g id="node6" class="node"><title>SettingsComponent</title><polygon fill="#ffffb3" stroke="#000" points="292.447 -122 165.553 -122 165.553 -86 292.447 -86 292.447 -122"/><text x="229" y="-99.8" fill="#000" font-family="Times,serif" font-size="14" text-anchor="middle">SettingsComponent</text></g><g id="edge6" class="edge"><title>SettingsComponent-&gt;HomePageModule</title><path fill="none" stroke="#000" d="M229,-122.1061C229,-141.3391 229,-169 229,-169 229,-169 436.3352,-169 436.3352,-169"/><polygon fill="#000" stroke="#000" points="436.335 -172.5 446.335 -169 436.335 -165.5 436.335 -172.5"/></g><g id="node7" class="node"><title>StudentComponent</title><polygon fill="#ffffb3" stroke="#000" points="148.111 -122 23.889 -122 23.889 -86 148.111 -86 148.111 -122"/><text x="86" y="-99.8" fill="#000" font-family="Times,serif" font-size="14" text-anchor="middle">StudentComponent</text></g><g id="edge7" class="edge"><title>StudentComponent-&gt;HomePageModule</title><path fill="none" stroke="#000" d="M86,-122.2921C86,-144.2057 86,-178 86,-178 86,-178 436.2326,-178 436.2326,-178"/><polygon fill="#000" stroke="#000" points="436.233 -181.5 446.233 -178 436.233 -174.5 436.233 -181.5"/></g></g></svg>