<svg xmlns="http://www.w3.org/2000/svg" xmlns:xlink="http://www.w3.org/1999/xlink" width="1728" height="284pt" viewBox="0 0 1296 284"><g id="graph0" class="graph" transform="scale(1 1) rotate(0) translate(4 280)"><title>dependencies</title><polygon fill="#fff" stroke="transparent" points="-4 4 -4 -280 1292 -280 1292 4 -4 4"/><text x="623.009" y="-42.4" fill="#000" font-family="sans-serif" font-size="14" font-weight="bold" text-anchor="start">Legend</text><polygon fill="#ffffb3" stroke="transparent" points="410 -10 410 -30 430 -30 430 -10 410 -10"/><text x="433.629" y="-15.4" fill="#000" font-family="sans-serif" font-size="14" text-anchor="start">Declarations</text><polygon fill="#8dd3c7" stroke="transparent" points="523 -10 523 -30 543 -30 543 -10 523 -10"/><text x="546.725" y="-15.4" fill="#000" font-family="sans-serif" font-size="14" text-anchor="start">Module</text><polygon fill="#80b1d3" stroke="transparent" points="609 -10 609 -30 629 -30 629 -10 609 -10"/><text x="632.781" y="-15.4" fill="#000" font-family="sans-serif" font-size="14" text-anchor="start">Bootstrap</text><polygon fill="#fdb462" stroke="transparent" points="706 -10 706 -30 726 -30 726 -10 706 -10"/><text x="729.673" y="-15.4" fill="#000" font-family="sans-serif" font-size="14" text-anchor="start">Providers</text><polygon fill="#fb8072" stroke="transparent" points="802 -10 802 -30 822 -30 822 -10 802 -10"/><text x="825.726" y="-15.4" fill="#000" font-family="sans-serif" font-size="14" text-anchor="start">Exports</text><g id="clust1" class="cluster"><title>cluster_AppModule</title><polygon fill="none" stroke="#000" stroke-dasharray="1 5" points="8 -70 8 -268 298 -268 298 -70 8 -70"/></g><g id="clust2" class="cluster"><title>cluster_AppModule_declarations</title><polygon fill="none" stroke="#000" points="168 -78 168 -130 290 -130 290 -78 168 -78"/></g><g id="clust4" class="cluster"><title>cluster_AppModule_imports</title><polygon fill="none" stroke="#000" points="16 -78 16 -130 160 -130 160 -78 16 -78"/></g><g id="clust6" class="cluster"><title>cluster_AppModule_bootstrap</title><polygon fill="none" stroke="#000" points="96 -208 96 -260 220 -260 220 -208 96 -208"/></g><g id="clust14" class="cluster"><title>cluster_HomePageModule</title><polygon fill="none" stroke="#000" stroke-dasharray="1 5" points="306 -70 306 -195 1280 -195 1280 -70 306 -70"/></g><g id="clust15" class="cluster"><title>cluster_HomePageModule_declarations</title><polygon fill="none" stroke="#000" points="314 -78 314 -130 1272 -130 1272 -78 314 -78"/></g><g id="node1" class="node"><title>AppComponent</title><polygon fill="#ffffb3" stroke="#000" points="281.94 -122 176.06 -122 176.06 -86 281.94 -86 281.94 -122"/><text x="229" y="-99.8" fill="#000" font-family="Times,serif" font-size="14" text-anchor="middle">AppComponent</text></g><g id="node2" class="node"><title>AppModule</title><polygon fill="#8dd3c7" stroke="#000" points="199.657 -187 196.657 -191 175.657 -191 172.657 -187 116.343 -187 116.343 -151 199.657 -151 199.657 -187"/><text x="158" y="-164.8" fill="#000" font-family="Times,serif" font-size="14" text-anchor="middle">AppModule</text></g><g id="edge1" class="edge"><title>AppComponent-&gt;AppModule</title><path fill="none" stroke="#000" d="M188.0544,-122.1061C188.0544,-122.1061 188.0544,-140.991 188.0544,-140.991"/><polygon fill="#000" stroke="#000" points="184.554 -140.991 188.054 -150.991 191.554 -140.991 184.554 -140.991"/></g><g id="node4" class="node"><title>AppComponent</title><polygon fill="#80b1d3" stroke="#000" points="212.439 -252 103.561 -252 103.561 -216 212.439 -216 212.439 -252"/><text x="158" y="-229.8" fill="#000" font-family="Times,serif" font-size="14" text-anchor="middle">AppComponent</text></g><g id="edge3" class="edge"><title>AppModule-&gt;AppComponent</title><path fill="none" stroke="#000" stroke-dasharray="1 5" d="M158,-187.1061C158,-187.1061 158,-205.991 158,-205.991"/><polygon fill="#000" stroke="#000" points="154.5 -205.991 158 -215.991 161.5 -205.991 154.5 -205.991"/></g><g id="node3" class="node"><title>AppRoutingModule</title><polygon fill="#8dd3c7" stroke="#000" points="152.274 -122 149.274 -126 128.274 -126 125.274 -122 23.726 -122 23.726 -86 152.274 -86 152.274 -122"/><text x="88" y="-99.8" fill="#000" font-family="Times,serif" font-size="14" text-anchor="middle">AppRoutingModule</text></g><g id="edge2" class="edge"><title>AppRoutingModule-&gt;AppModule</title><path fill="none" stroke="#000" d="M134.2795,-122.1061C134.2795,-122.1061 134.2795,-140.991 134.2795,-140.991"/><polygon fill="#000" stroke="#000" points="130.78 -140.991 134.28 -150.991 137.78 -140.991 130.78 -140.991"/></g><g id="node5" class="node"><title>CameraComponent</title><polygon fill="#ffffb3" stroke="#000" points="1264.364 -122 1139.636 -122 1139.636 -86 1264.364 -86 1264.364 -122"/><text x="1202" y="-99.8" fill="#000" font-family="Times,serif" font-size="14" text-anchor="middle">CameraComponent</text></g><g id="node12" class="node"><title>HomePageModule</title><polygon fill="#8dd3c7" stroke="#000" points="865.473 -187 862.473 -191 841.473 -191 838.473 -187 744.527 -187 744.527 -151 865.473 -151 865.473 -187"/><text x="805" y="-164.8" fill="#000" font-family="Times,serif" font-size="14" text-anchor="middle">HomePageModule</text></g><g id="edge4" class="edge"><title>CameraComponent-&gt;HomePageModule</title><path fill="none" stroke="#000" d="M1202,-122.2921C1202,-144.2057 1202,-178 1202,-178 1202,-178 875.7279,-178 875.7279,-178"/><polygon fill="#000" stroke="#000" points="875.728 -174.5 865.728 -178 875.728 -181.5 875.728 -174.5"/></g><g id="node6" class="node"><title>HomePage</title><polygon fill="#ffffb3" stroke="#000" points="1121.925 -122 1044.075 -122 1044.075 -86 1121.925 -86 1121.925 -122"/><text x="1083" y="-99.8" fill="#000" font-family="Times,serif" font-size="14" text-anchor="middle">HomePage</text></g><g id="edge5" class="edge"><title>HomePage-&gt;HomePageModule</title><path fill="none" stroke="#000" d="M1083,-122.1061C1083,-141.3391 1083,-169 1083,-169 1083,-169 875.6648,-169 875.6648,-169"/><polygon fill="#000" stroke="#000" points="875.665 -165.5 865.665 -169 875.665 -172.5 875.665 -165.5"/></g><g id="node7" class="node"><title>InstructionComponent</title><polygon fill="#ffffb3" stroke="#000" points="1025.985 -122 884.015 -122 884.015 -86 1025.985 -86 1025.985 -122"/><text x="955" y="-99.8" fill="#000" font-family="Times,serif" font-size="14" text-anchor="middle">InstructionComponent</text></g><g id="edge6" class="edge"><title>InstructionComponent-&gt;HomePageModule</title><path fill="none" stroke="#000" d="M955,-122.027C955,-138.3976 955,-160 955,-160 955,-160 875.5784,-160 875.5784,-160"/><polygon fill="#000" stroke="#000" points="875.578 -156.5 865.578 -160 875.578 -163.5 875.578 -156.5"/></g><g id="node8" class="node"><title>NavbarComponent</title><polygon fill="#ffffb3" stroke="#000" points="866.03 -122 743.97 -122 743.97 -86 866.03 -86 866.03 -122"/><text x="805" y="-99.8" fill="#000" font-family="Times,serif" font-size="14" text-anchor="middle">NavbarComponent</text></g><g id="edge7" class="edge"><title>NavbarComponent-&gt;HomePageModule</title><path fill="none" stroke="#000" d="M805,-122.1061C805,-122.1061 805,-140.991 805,-140.991"/><polygon fill="#000" stroke="#000" points="801.5 -140.991 805 -150.991 808.5 -140.991 801.5 -140.991"/></g><g id="node9" class="node"><title>QueueComponent</title><polygon fill="#ffffb3" stroke="#000" points="725.868 -122 608.132 -122 608.132 -86 725.868 -86 725.868 -122"/><text x="667" y="-99.8" fill="#000" font-family="Times,serif" font-size="14" text-anchor="middle">QueueComponent</text></g><g id="edge8" class="edge"><title>QueueComponent-&gt;HomePageModule</title><path fill="none" stroke="#000" d="M667,-122.027C667,-138.3976 667,-160 667,-160 667,-160 734.4712,-160 734.4712,-160"/><polygon fill="#000" stroke="#000" points="734.471 -163.5 744.471 -160 734.471 -156.5 734.471 -163.5"/></g><g id="node10" class="node"><title>SettingsComponent</title><polygon fill="#ffffb3" stroke="#000" points="590.447 -122 463.553 -122 463.553 -86 590.447 -86 590.447 -122"/><text x="527" y="-99.8" fill="#000" font-family="Times,serif" font-size="14" text-anchor="middle">SettingsComponent</text></g><g id="edge9" class="edge"><title>SettingsComponent-&gt;HomePageModule</title><path fill="none" stroke="#000" d="M527,-122.1061C527,-141.3391 527,-169 527,-169 527,-169 734.3352,-169 734.3352,-169"/><polygon fill="#000" stroke="#000" points="734.335 -172.5 744.335 -169 734.335 -165.5 734.335 -172.5"/></g><g id="node11" class="node"><title>StudentComponent</title><polygon fill="#ffffb3" stroke="#000" points="446.111 -122 321.889 -122 321.889 -86 446.111 -86 446.111 -122"/><text x="384" y="-99.8" fill="#000" font-family="Times,serif" font-size="14" text-anchor="middle">StudentComponent</text></g><g id="edge10" class="edge"><title>StudentComponent-&gt;HomePageModule</title><path fill="none" stroke="#000" d="M384,-122.2921C384,-144.2057 384,-178 384,-178 384,-178 734.2326,-178 734.2326,-178"/><polygon fill="#000" stroke="#000" points="734.233 -181.5 744.233 -178 734.233 -174.5 734.233 -181.5"/></g></g></svg>