<?xml version="1.0" encoding="UTF-8" standalone="no"?>
<!DOCTYPE svg PUBLIC "-//W3C//DTD SVG 1.1//EN"
 "http://www.w3.org/Graphics/SVG/1.1/DTD/svg11.dtd">
<!-- Generated by graphviz version 2.40.1 (20161225.0304)
 -->
<!-- Title: dependencies Pages: 1 -->
<svg width="1296pt" height="284pt"
 viewBox="0.00 0.00 1296.00 284.00" xmlns="http://www.w3.org/2000/svg" xmlns:xlink="http://www.w3.org/1999/xlink">
<g id="graph0" class="graph" transform="scale(1 1) rotate(0) translate(4 280)">
<title>dependencies</title>
<polygon fill="#ffffff" stroke="transparent" points="-4,4 -4,-280 1292,-280 1292,4 -4,4"/>
<text text-anchor="start" x="623.0091" y="-42.4" font-family="sans-serif" font-weight="bold" font-size="14.00" fill="#000000">Legend</text>
<polygon fill="#ffffb3" stroke="transparent" points="410,-10 410,-30 430,-30 430,-10 410,-10"/>
<text text-anchor="start" x="433.629" y="-15.4" font-family="sans-serif" font-size="14.00" fill="#000000"> &#160;Declarations</text>
<polygon fill="#8dd3c7" stroke="transparent" points="523,-10 523,-30 543,-30 543,-10 523,-10"/>
<text text-anchor="start" x="546.7251" y="-15.4" font-family="sans-serif" font-size="14.00" fill="#000000"> &#160;Module</text>
<polygon fill="#80b1d3" stroke="transparent" points="609,-10 609,-30 629,-30 629,-10 609,-10"/>
<text text-anchor="start" x="632.7812" y="-15.4" font-family="sans-serif" font-size="14.00" fill="#000000"> &#160;Bootstrap</text>
<polygon fill="#fdb462" stroke="transparent" points="706,-10 706,-30 726,-30 726,-10 706,-10"/>
<text text-anchor="start" x="729.6732" y="-15.4" font-family="sans-serif" font-size="14.00" fill="#000000"> &#160;Providers</text>
<polygon fill="#fb8072" stroke="transparent" points="802,-10 802,-30 822,-30 822,-10 802,-10"/>
<text text-anchor="start" x="825.7258" y="-15.4" font-family="sans-serif" font-size="14.00" fill="#000000"> &#160;Exports</text>
<g id="clust1" class="cluster">
<title>cluster_AppModule</title>
<polygon fill="none" stroke="#000000" stroke-dasharray="1,5" points="8,-70 8,-268 298,-268 298,-70 8,-70"/>
</g>
<g id="clust2" class="cluster">
<title>cluster_AppModule_declarations</title>
<polygon fill="none" stroke="#000000" points="168,-78 168,-130 290,-130 290,-78 168,-78"/>
</g>
<g id="clust4" class="cluster">
<title>cluster_AppModule_imports</title>
<polygon fill="none" stroke="#000000" points="16,-78 16,-130 160,-130 160,-78 16,-78"/>
</g>
<g id="clust6" class="cluster">
<title>cluster_AppModule_bootstrap</title>
<polygon fill="none" stroke="#000000" points="96,-208 96,-260 220,-260 220,-208 96,-208"/>
</g>
<g id="clust14" class="cluster">
<title>cluster_HomePageModule</title>
<polygon fill="none" stroke="#000000" stroke-dasharray="1,5" points="306,-70 306,-195 1280,-195 1280,-70 306,-70"/>
</g>
<g id="clust15" class="cluster">
<title>cluster_HomePageModule_declarations</title>
<polygon fill="none" stroke="#000000" points="314,-78 314,-130 1272,-130 1272,-78 314,-78"/>
</g>
<!-- AppComponent -->
<g id="node1" class="node">
<title>AppComponent</title>
<polygon fill="#ffffb3" stroke="#000000" points="281.9399,-122 176.0601,-122 176.0601,-86 281.9399,-86 281.9399,-122"/>
<text text-anchor="middle" x="229" y="-99.8" font-family="Times,serif" font-size="14.00" fill="#000000">AppComponent</text>
</g>
<!-- AppModule -->
<g id="node2" class="node">
<title>AppModule</title>
<polygon fill="#8dd3c7" stroke="#000000" points="199.6571,-187 196.6571,-191 175.6571,-191 172.6571,-187 116.3429,-187 116.3429,-151 199.6571,-151 199.6571,-187"/>
<text text-anchor="middle" x="158" y="-164.8" font-family="Times,serif" font-size="14.00" fill="#000000">AppModule</text>
</g>
<!-- AppComponent&#45;&gt;AppModule -->
<g id="edge1" class="edge">
<title>AppComponent&#45;&gt;AppModule</title>
<path fill="none" stroke="#000000" d="M188.0544,-122.1061C188.0544,-122.1061 188.0544,-140.991 188.0544,-140.991"/>
<polygon fill="#000000" stroke="#000000" points="184.5544,-140.9909 188.0544,-150.991 191.5544,-140.991 184.5544,-140.9909"/>
</g>
<!-- AppComponent  -->
<g id="node4" class="node">
<title>AppComponent </title>
<polygon fill="#80b1d3" stroke="#000000" points="212.439,-252 103.561,-252 103.561,-216 212.439,-216 212.439,-252"/>
<text text-anchor="middle" x="158" y="-229.8" font-family="Times,serif" font-size="14.00" fill="#000000">AppComponent </text>
</g>
<!-- AppModule&#45;&gt;AppComponent  -->
<g id="edge3" class="edge">
<title>AppModule&#45;&gt;AppComponent </title>
<path fill="none" stroke="#000000" stroke-dasharray="1,5" d="M158,-187.1061C158,-187.1061 158,-205.991 158,-205.991"/>
<polygon fill="#000000" stroke="#000000" points="154.5001,-205.9909 158,-215.991 161.5001,-205.991 154.5001,-205.9909"/>
</g>
<!-- AppRoutingModule -->
<g id="node3" class="node">
<title>AppRoutingModule</title>
<polygon fill="#8dd3c7" stroke="#000000" points="152.2744,-122 149.2744,-126 128.2744,-126 125.2744,-122 23.7256,-122 23.7256,-86 152.2744,-86 152.2744,-122"/>
<text text-anchor="middle" x="88" y="-99.8" font-family="Times,serif" font-size="14.00" fill="#000000">AppRoutingModule</text>
</g>
<!-- AppRoutingModule&#45;&gt;AppModule -->
<g id="edge2" class="edge">
<title>AppRoutingModule&#45;&gt;AppModule</title>
<path fill="none" stroke="#000000" d="M134.2795,-122.1061C134.2795,-122.1061 134.2795,-140.991 134.2795,-140.991"/>
<polygon fill="#000000" stroke="#000000" points="130.7795,-140.9909 134.2795,-150.991 137.7795,-140.991 130.7795,-140.9909"/>
</g>
<!-- CameraComponent -->
<g id="node5" class="node">
<title>CameraComponent</title>
<polygon fill="#ffffb3" stroke="#000000" points="1264.3641,-122 1139.6359,-122 1139.6359,-86 1264.3641,-86 1264.3641,-122"/>
<text text-anchor="middle" x="1202" y="-99.8" font-family="Times,serif" font-size="14.00" fill="#000000">CameraComponent</text>
</g>
<!-- HomePageModule -->
<g id="node12" class="node">
<title>HomePageModule</title>
<polygon fill="#8dd3c7" stroke="#000000" points="865.4734,-187 862.4734,-191 841.4734,-191 838.4734,-187 744.5266,-187 744.5266,-151 865.4734,-151 865.4734,-187"/>
<text text-anchor="middle" x="805" y="-164.8" font-family="Times,serif" font-size="14.00" fill="#000000">HomePageModule</text>
</g>
<!-- CameraComponent&#45;&gt;HomePageModule -->
<g id="edge4" class="edge">
<title>CameraComponent&#45;&gt;HomePageModule</title>
<path fill="none" stroke="#000000" d="M1202,-122.2921C1202,-144.2057 1202,-178 1202,-178 1202,-178 875.7279,-178 875.7279,-178"/>
<polygon fill="#000000" stroke="#000000" points="875.7279,-174.5001 865.7279,-178 875.7279,-181.5001 875.7279,-174.5001"/>
</g>
<!-- HomePage -->
<g id="node6" class="node">
<title>HomePage</title>
<polygon fill="#ffffb3" stroke="#000000" points="1121.9248,-122 1044.0752,-122 1044.0752,-86 1121.9248,-86 1121.9248,-122"/>
<text text-anchor="middle" x="1083" y="-99.8" font-family="Times,serif" font-size="14.00" fill="#000000">HomePage</text>
</g>
<!-- HomePage&#45;&gt;HomePageModule -->
<g id="edge5" class="edge">
<title>HomePage&#45;&gt;HomePageModule</title>
<path fill="none" stroke="#000000" d="M1083,-122.1061C1083,-141.3391 1083,-169 1083,-169 1083,-169 875.6648,-169 875.6648,-169"/>
<polygon fill="#000000" stroke="#000000" points="875.6648,-165.5001 865.6648,-169 875.6647,-172.5001 875.6648,-165.5001"/>
</g>
<!-- InstructionComponent -->
<g id="node7" class="node">
<title>InstructionComponent</title>
<polygon fill="#ffffb3" stroke="#000000" points="1025.9846,-122 884.0154,-122 884.0154,-86 1025.9846,-86 1025.9846,-122"/>
<text text-anchor="middle" x="955" y="-99.8" font-family="Times,serif" font-size="14.00" fill="#000000">InstructionComponent</text>
</g>
<!-- InstructionComponent&#45;&gt;HomePageModule -->
<g id="edge6" class="edge">
<title>InstructionComponent&#45;&gt;HomePageModule</title>
<path fill="none" stroke="#000000" d="M955,-122.027C955,-138.3976 955,-160 955,-160 955,-160 875.5784,-160 875.5784,-160"/>
<polygon fill="#000000" stroke="#000000" points="875.5784,-156.5001 865.5784,-160 875.5783,-163.5001 875.5784,-156.5001"/>
</g>
<!-- NavbarComponent -->
<g id="node8" class="node">
<title>NavbarComponent</title>
<polygon fill="#ffffb3" stroke="#000000" points="866.0297,-122 743.9703,-122 743.9703,-86 866.0297,-86 866.0297,-122"/>
<text text-anchor="middle" x="805" y="-99.8" font-family="Times,serif" font-size="14.00" fill="#000000">NavbarComponent</text>
</g>
<!-- NavbarComponent&#45;&gt;HomePageModule -->
<g id="edge7" class="edge">
<title>NavbarComponent&#45;&gt;HomePageModule</title>
<path fill="none" stroke="#000000" d="M805,-122.1061C805,-122.1061 805,-140.991 805,-140.991"/>
<polygon fill="#000000" stroke="#000000" points="801.5001,-140.9909 805,-150.991 808.5001,-140.991 801.5001,-140.9909"/>
</g>
<!-- QueueComponent -->
<g id="node9" class="node">
<title>QueueComponent</title>
<polygon fill="#ffffb3" stroke="#000000" points="725.8683,-122 608.1317,-122 608.1317,-86 725.8683,-86 725.8683,-122"/>
<text text-anchor="middle" x="667" y="-99.8" font-family="Times,serif" font-size="14.00" fill="#000000">QueueComponent</text>
</g>
<!-- QueueComponent&#45;&gt;HomePageModule -->
<g id="edge8" class="edge">
<title>QueueComponent&#45;&gt;HomePageModule</title>
<path fill="none" stroke="#000000" d="M667,-122.027C667,-138.3976 667,-160 667,-160 667,-160 734.4712,-160 734.4712,-160"/>
<polygon fill="#000000" stroke="#000000" points="734.4712,-163.5001 744.4712,-160 734.4712,-156.5001 734.4712,-163.5001"/>
</g>
<!-- SettingsComponent -->
<g id="node10" class="node">
<title>SettingsComponent</title>
<polygon fill="#ffffb3" stroke="#000000" points="590.4468,-122 463.5532,-122 463.5532,-86 590.4468,-86 590.4468,-122"/>
<text text-anchor="middle" x="527" y="-99.8" font-family="Times,serif" font-size="14.00" fill="#000000">SettingsComponent</text>
</g>
<!-- SettingsComponent&#45;&gt;HomePageModule -->
<g id="edge9" class="edge">
<title>SettingsComponent&#45;&gt;HomePageModule</title>
<path fill="none" stroke="#000000" d="M527,-122.1061C527,-141.3391 527,-169 527,-169 527,-169 734.3352,-169 734.3352,-169"/>
<polygon fill="#000000" stroke="#000000" points="734.3353,-172.5001 744.3352,-169 734.3352,-165.5001 734.3353,-172.5001"/>
</g>
<!-- StudentComponent -->
<g id="node11" class="node">
<title>StudentComponent</title>
<polygon fill="#ffffb3" stroke="#000000" points="446.1108,-122 321.8892,-122 321.8892,-86 446.1108,-86 446.1108,-122"/>
<text text-anchor="middle" x="384" y="-99.8" font-family="Times,serif" font-size="14.00" fill="#000000">StudentComponent</text>
</g>
<!-- StudentComponent&#45;&gt;HomePageModule -->
<g id="edge10" class="edge">
<title>StudentComponent&#45;&gt;HomePageModule</title>
<path fill="none" stroke="#000000" d="M384,-122.2921C384,-144.2057 384,-178 384,-178 384,-178 734.2326,-178 734.2326,-178"/>
<polygon fill="#000000" stroke="#000000" points="734.2326,-181.5001 744.2326,-178 734.2326,-174.5001 734.2326,-181.5001"/>
</g>
</g>
</svg>
